<svg width="147" height="24" viewBox="0 0 147 24" fill="none" xmlns="http://www.w3.org/2000/svg">
<path d="M0.176573 1.864C-0.251912 2.32774 0.207179 23.3817 0.421422 23.5672C0.635664 23.7527 5.13476 23.629 5.68567 23.4744L5.65506 17.724C5.65506 17.724 7.64446 15.4671 7.95052 15.127C8.59324 16.2091 12.4802 23.4744 12.9087 23.8454C13.8881 24.0927 17.9587 22.5779 17.9893 22.3305C17.8363 21.7431 13.3372 13.4885 11.8375 11.3862C11.8375 11.3862 17.8057 3.62622 17.7751 3.28614C17.7445 2.91515 13.4902 1.64758 13.2148 1.64758C12.9699 1.64758 5.50203 10.9843 5.50203 10.9843C5.50203 10.9843 5.8387 1.83308 5.65506 1.74033C5.47142 1.64758 0.543846 1.46209 0.176573 1.864Z" fill="#1ABD7D"/>
<path d="M20.9556 8.13999C20.7719 8.48006 21.0474 23.258 21.1086 23.3508C21.1698 23.4435 25.5465 23.5363 25.6689 23.3198C25.7607 23.1034 26.0056 8.26365 25.9138 8.13999C25.7913 8.01632 21.1392 7.83082 20.9556 8.13999ZM20.7719 3.22431C20.7719 4.9247 21.8738 5.82127 23.4653 5.82127C25.118 5.82127 26.281 4.77012 26.281 3.40981C26.281 1.493 25.118 0.349102 23.4653 0.349102C21.2616 0.349102 20.7719 1.55483 20.7719 3.22431Z" fill="#1ABD7D"/>
<path d="M36.1466 23.4744C38.7175 23.4744 40.4926 22.0523 40.7375 21.6813C40.7681 21.8977 40.8293 23.1653 40.8293 23.3817C41.9311 23.8145 45.2672 23.5053 45.359 23.4126C45.4508 23.0725 45.8181 0.194521 45.7569 0.163605C45.1448 -0.145557 40.9517 0.0399398 40.6763 0.256354C40.4008 0.441851 40.462 8.72739 40.462 9.74763C40.2172 9.34572 38.5338 8.10907 36.5138 8.10907C32.9329 8.13999 29.4132 10.7988 29.4132 15.6217C29.4132 20.7538 32.6881 23.4744 36.1466 23.4744ZM34.6775 15.8072C34.6775 13.8904 35.7487 12.561 37.6769 12.561C39.3296 12.561 40.7069 13.7358 40.7069 15.7763C40.7069 17.6313 39.7275 19.0225 37.6769 19.0225C35.9935 19.0225 34.6775 17.9095 34.6775 15.8072Z" fill="#1ABD7D"/>
<path d="M54.8824 12.6228C54.8824 9.09839 57.1778 6.59418 60.3303 6.59418C62.2584 6.59418 63.85 7.27433 64.9824 7.92357C65.5333 7.33616 67.2778 4.12088 67.2778 3.50256C66.2984 2.60599 63.7887 1.40025 60.2384 1.40025C53.3215 1.40025 49.1896 6.19226 49.1896 12.4064C49.1896 18.8679 52.5257 24 59.6875 24C63.2072 24 66.6045 22.7015 67.9512 21.6195C68.0736 20.9084 68.1654 11.8499 67.9512 11.5099C67.7369 11.2625 60.2996 11.5408 59.3509 11.7572C59.1672 12.0663 59.2284 15.529 59.3815 15.7145C59.9936 15.6835 62.9318 15.5908 62.9318 15.5908C62.9318 15.5908 62.9624 17.7549 62.993 18.5278C62.3196 18.7752 61.279 19.0843 60.2384 19.0843C57.1778 19.0843 54.8824 17.0439 54.8824 12.6228Z" fill="#1ABD7D"/>
<path d="M75.9452 17.0748C77.7816 17.1366 83.3213 17.1366 84.8516 16.9202C85.0352 16.3019 85.127 15.498 85.127 14.5396C85.127 11.077 82.6479 7.98541 78.5773 7.98541C73.7722 7.98541 71.2012 11.8808 71.2012 16.0545C71.2012 20.0118 73.4355 23.7527 78.9752 23.7527C81.4543 23.7527 83.5661 22.7634 84.3925 21.9904C84.3619 21.5267 83.107 18.9607 82.801 18.6515C82.0052 19.1462 80.8728 19.7336 79.22 19.7336C77.1082 19.7336 75.9452 18.7133 75.9452 17.0748ZM75.9146 14.2305C75.9146 12.6538 76.9552 11.448 78.5467 11.448C80.0158 11.448 80.781 12.6228 80.7197 14.1377L75.9146 14.2305Z" fill="#1ABD7D"/>
<path d="M88.4821 8.51098C88.3902 15.0652 88.5127 23.1343 88.5739 23.258C88.6657 23.4435 93.1342 23.5053 93.226 23.3817C93.3178 23.258 93.3484 15.8381 93.3484 14.787C93.3484 13.5812 94.3584 12.2518 96.0418 12.2518C97.6333 12.2518 98.3678 13.4267 98.3678 15.0961C98.3678 16.2091 98.2148 23.5053 98.3372 23.5672C98.429 23.629 103.02 23.6908 103.051 23.3817C103.173 21.8668 103.295 16.6419 103.295 14.5706C103.295 10.5824 101.214 7.89266 97.8781 7.89266C95.399 7.89266 93.8993 9.03656 93.226 10.0568C93.2566 9.87129 93.2872 8.85106 93.3178 8.20182C93.0424 7.92357 88.7575 8.10907 88.4821 8.51098Z" fill="#1ABD7D"/>
<path d="M107.419 8.13999C107.236 8.48006 107.511 23.258 107.572 23.3508C107.634 23.4435 112.01 23.5363 112.133 23.3198C112.225 23.1034 112.469 8.26365 112.378 8.13999C112.255 8.01632 107.603 7.83082 107.419 8.13999ZM107.236 3.22431C107.236 4.9247 108.338 5.82127 109.929 5.82127C111.582 5.82127 112.745 4.77012 112.745 3.40981C112.745 1.493 111.582 0.349102 109.929 0.349102C107.725 0.349102 107.236 1.55483 107.236 3.22431Z" fill="#1ABD7D"/>
<path d="M130.905 23.3198C131.027 16.7347 131.119 8.44915 131.088 8.32548C130.966 8.13999 126.528 8.07815 126.436 8.20182C126.314 8.32548 126.191 15.9309 126.191 16.8274C126.161 18.1878 125.273 19.4862 123.59 19.4862C121.998 19.4862 121.264 18.4351 121.264 16.7038C121.264 15.498 121.57 8.44915 121.509 8.10907C121.417 8.01632 116.826 7.95449 116.765 8.26365C116.673 9.71671 116.367 15.0034 116.367 17.2294C116.367 21.5576 118.142 23.8454 121.845 23.8454C124.141 23.8454 125.702 22.5469 126.375 21.5576C126.344 21.774 126.375 22.6706 126.344 23.3198C126.65 23.5981 130.629 23.7218 130.905 23.3198Z" fill="#1ABD7D"/>
<path d="M140.879 23.9073C145.164 23.9073 147 21.434 147 18.7133C147 15.8381 145.378 14.5706 141.736 14.045C139.961 13.7977 139.44 13.4885 139.44 12.8083C139.44 12.19 139.961 11.6026 141.154 11.6026C142.929 11.6026 144.888 12.8083 145.041 12.8083C145.255 12.7774 146.663 9.53122 146.388 9.25297C145.99 8.85106 143.511 7.89266 140.695 7.89266C136.931 7.89266 134.696 9.80946 134.696 13.1175C134.696 15.7145 136.288 17.1675 139.716 17.7549C141.705 18.1259 142.195 18.4969 142.195 19.1771C142.195 19.8572 141.583 20.2901 140.358 20.2901C138.4 20.2901 136.502 18.8988 136.012 18.6515C135.768 18.5278 134.36 21.8977 134.605 22.2069C135.033 22.6706 137.818 23.9073 140.879 23.9073Z" fill="#1ABD7D"/>
</svg>
